<svg xmlns="http://www.w3.org/2000/svg" viewBox="0 0 100 100">
  <!-- Isotipo Paqarina: la Q serif (bowl con contraste, diamante central y
       cola caligráfica que barre a la derecha — guiño al grano de café),
       centrada en badge cuadrado. Misma geometría que el wordmark. -->
  <rect width="100" height="100" rx="22" fill="#15100C"/>
  <g transform="translate(50 50) scale(0.83) translate(-47.5 -40)" fill="#D4B36A">
    <path fill-rule="evenodd" d="M10,40 a30,30 0 1,0 60,0 a30,30 0 1,0 -60,0 Z M24,40 a16,19 0 1,0 32,0 a16,19 0 1,0 -32,0 Z"/>
    <path d="M40 32 L44.5 40 L40 48 L35.5 40 Z"/>
    <path d="M34 64 C 50 72 68 70 85 60 C 69 68 51 70 37 68 Z"/>
  </g>
</svg>
