<svg xmlns="http://www.w3.org/2000/svg" viewBox="0 0 100 100">
  <!-- Isotipo Paqarina: la Q serif del logo — bowl con contraste de trazo
       (más grueso abajo-izquierda), diamante pequeño en el counter y cola
       caligráfica que tapera a punta hacia la derecha (guiño al grano). -->
  <rect width="100" height="100" rx="22" fill="#15100C"/>
  <g transform="translate(50 50) scale(0.84) translate(-45.5 -41)" fill="#D4B36A">
    <path fill-rule="evenodd" d="M11,40 a29,29 0 1,0 58,0 a29,29 0 1,0 -58,0 Z M20.5,38.5 a21,23 0 1,0 42,0 a21,23 0 1,0 -42,0 Z"/>
    <path d="M40 34 L44 39 L40 44 L36 39 Z"/>
    <path d="M40 67 C 54 69 67 68 80 61 C 69 68 54 73 40 71 Z"/>
  </g>
</svg>
